<svg width="40" height="40" viewBox="0 0 40 40" fill="none" xmlns="http://www.w3.org/2000/svg">
<path d="M40 20.1218C40 9.00766 31.0469 0 20 0C8.95312 0 0 9.00766 0 20.1218C0 30.167 7.3125 38.4909 16.875 40V25.9383H11.7969V20.1218H16.875V15.6887C16.875 10.6465 19.8594 7.86009 24.4297 7.86009C26.6172 7.86009 28.9062 8.25309 28.9062 8.25309V13.205H26.3828C23.8984 13.205 23.125 14.7573 23.125 16.349V20.1218H28.6719L27.7852 25.9383H23.125V40C32.6875 38.4909 40 30.167 40 20.1218Z" fill="#56C2ED"/>
<path d="M40 20.1218C40 9.00766 31.0469 0 20 0C8.95312 0 0 9.00766 0 20.1218C0 30.167 7.3125 38.4909 16.875 40V25.9383H11.7969V20.1218H16.875V15.6887C16.875 10.6465 19.8594 7.86009 24.4297 7.86009C26.6172 7.86009 28.9062 8.25309 28.9062 8.25309V13.205H26.3828C23.8984 13.205 23.125 14.7573 23.125 16.349V20.1218H28.6719L27.7852 25.9383H23.125V40C32.6875 38.4909 40 30.167 40 20.1218Z" fill="#56C2ED"/>
</svg>
