<svg width="25" height="25" viewBox="0 0 25 25" fill="none" xmlns="http://www.w3.org/2000/svg">
<g opacity="0.4">
<path d="M12.5811 13.2541C14.2473 13.2541 15.598 11.9034 15.598 10.2372C15.598 8.57105 14.2473 7.22034 12.5811 7.22034C10.9149 7.22034 9.56421 8.57105 9.56421 10.2372C9.56421 11.9034 10.9149 13.2541 12.5811 13.2541Z" stroke="black" stroke-linecap="round" stroke-linejoin="round"/>
<path d="M20.1234 10.2373C20.1234 17.0253 12.5812 22.3049 12.5812 22.3049C12.5812 22.3049 5.03894 17.0253 5.03894 10.2373C5.03894 8.23697 5.83357 6.31858 7.24801 4.90414C8.66245 3.48969 10.5808 2.69507 12.5812 2.69507C14.5815 2.69507 16.4999 3.48969 17.9143 4.90414C19.3288 6.31858 20.1234 8.23697 20.1234 10.2373V10.2373Z" stroke="black" stroke-linecap="round" stroke-linejoin="round"/>
</g>
</svg>
