<svg width="23" height="22" viewBox="0 0 23 22" fill="none" xmlns="http://www.w3.org/2000/svg">
<path d="M10.8238 0.58541C10.8837 0.401148 11.1444 0.401148 11.2042 0.58541L13.6633 8.1536C13.6901 8.236 13.7669 8.2918 13.8535 8.2918H21.8112C22.0049 8.2918 22.0855 8.53972 21.9287 8.6536L15.4909 13.331C15.4208 13.3819 15.3914 13.4722 15.4182 13.5546L17.8772 21.1228C17.9371 21.3071 17.7262 21.4603 17.5695 21.3464L11.1316 16.669C11.0615 16.6181 10.9666 16.6181 10.8965 16.669L4.45859 21.3464C4.30185 21.4603 4.09096 21.3071 4.15083 21.1228L6.60988 13.5546C6.63665 13.4722 6.60732 13.3819 6.53723 13.331L0.0993402 8.6536C-0.0574026 8.53972 0.0231522 8.2918 0.216897 8.2918H8.17456C8.26121 8.2918 8.338 8.236 8.36477 8.1536L10.8238 0.58541Z" fill="#FFC123"/>
</svg>
