<svg width="22" height="22" viewBox="0 0 22 22" fill="none" xmlns="http://www.w3.org/2000/svg">
<path d="M10.8098 0.58541C10.8697 0.401148 11.1303 0.401148 11.1902 0.58541L13.6493 8.1536C13.676 8.236 13.7528 8.2918 13.8395 8.2918H21.7971C21.9909 8.2918 22.0714 8.53972 21.9147 8.6536L15.4768 13.331C15.4067 13.3819 15.3774 13.4722 15.4042 13.5546L17.8632 21.1228C17.9231 21.3071 17.7122 21.4603 17.5554 21.3464L11.1176 16.669C11.0475 16.6181 10.9525 16.6181 10.8824 16.669L4.44456 21.3464C4.28781 21.4603 4.07692 21.3071 4.13679 21.1228L6.59584 13.5546C6.62262 13.4722 6.59329 13.3819 6.52319 13.331L0.0853021 8.6536C-0.0714406 8.53972 0.00911415 8.2918 0.202859 8.2918H8.16052C8.24717 8.2918 8.32396 8.236 8.35073 8.1536L10.8098 0.58541Z" fill="#FFC123"/>
</svg>
