<svg width="40" height="40" viewBox="0 0 40 40" fill="none" xmlns="http://www.w3.org/2000/svg">
<path fill-rule="evenodd" clip-rule="evenodd" d="M20 0C8.9543 0 0 8.9543 0 20C0 31.0457 8.9543 40 20 40C31.0457 40 40 31.0457 40 20C40 8.9543 31.0457 0 20 0ZM19.443 16.9482L19.401 16.2562C19.2751 14.4625 20.3803 12.8242 22.129 12.1886C22.7725 11.9627 23.8637 11.9344 24.5771 12.1321C24.8569 12.2169 25.3885 12.4994 25.7663 12.7536L26.4518 13.2196L27.2072 12.9795C27.6269 12.8524 28.1865 12.6406 28.4383 12.4994C28.6761 12.3722 28.8859 12.3016 28.8859 12.344C28.8859 12.5841 28.3683 13.4032 27.9346 13.8552C27.3471 14.4907 27.515 14.5472 28.7041 14.1235C29.4175 13.8834 29.4315 13.8834 29.2916 14.1518C29.2077 14.293 28.774 14.7873 28.3124 15.2393C27.529 16.0161 27.487 16.1008 27.487 16.7505C27.487 17.7532 27.0113 19.8435 26.5357 20.9875C25.6543 23.1343 23.7658 25.3516 21.8772 26.4674C19.2191 28.0351 15.6798 28.4305 12.7 27.5125C11.7067 27.2018 10 26.4109 10 26.2696C10 26.2273 10.5176 26.1708 11.1471 26.1567C12.4622 26.1284 13.7772 25.7612 14.8964 25.1115L15.6518 24.6596L14.7844 24.363C13.5534 23.9393 12.4482 22.9648 12.1684 22.0468C12.0844 21.7502 12.1124 21.736 12.8958 21.736L13.7072 21.7219L13.0218 21.3971C12.2104 20.9875 11.4689 20.2955 11.1052 19.5893C10.8394 19.0808 10.5036 17.7956 10.6016 17.6968C10.6295 17.6544 10.9233 17.7391 11.2591 17.8521C12.2243 18.2052 12.3503 18.1205 11.7907 17.5273C10.7414 16.4539 10.4197 14.858 10.9233 13.3468L11.1611 12.6688L12.0844 13.5869C13.973 15.437 16.1974 16.5386 18.7435 16.8635L19.443 16.9482Z" fill="#56C2ED"/>
<path fill-rule="evenodd" clip-rule="evenodd" d="M20 0C8.9543 0 0 8.9543 0 20C0 31.0457 8.9543 40 20 40C31.0457 40 40 31.0457 40 20C40 8.9543 31.0457 0 20 0ZM19.443 16.9482L19.401 16.2562C19.2751 14.4625 20.3803 12.8242 22.129 12.1886C22.7725 11.9627 23.8637 11.9344 24.5771 12.1321C24.8569 12.2169 25.3885 12.4994 25.7663 12.7536L26.4518 13.2196L27.2072 12.9795C27.6269 12.8524 28.1865 12.6406 28.4383 12.4994C28.6761 12.3722 28.8859 12.3016 28.8859 12.344C28.8859 12.5841 28.3683 13.4032 27.9346 13.8552C27.3471 14.4907 27.515 14.5472 28.7041 14.1235C29.4175 13.8834 29.4315 13.8834 29.2916 14.1518C29.2077 14.293 28.774 14.7873 28.3124 15.2393C27.529 16.0161 27.487 16.1008 27.487 16.7505C27.487 17.7532 27.0113 19.8435 26.5357 20.9875C25.6543 23.1343 23.7658 25.3516 21.8772 26.4674C19.2191 28.0351 15.6798 28.4305 12.7 27.5125C11.7067 27.2018 10 26.4109 10 26.2696C10 26.2273 10.5176 26.1708 11.1471 26.1567C12.4622 26.1284 13.7772 25.7612 14.8964 25.1115L15.6518 24.6596L14.7844 24.363C13.5534 23.9393 12.4482 22.9648 12.1684 22.0468C12.0844 21.7502 12.1124 21.736 12.8958 21.736L13.7072 21.7219L13.0218 21.3971C12.2104 20.9875 11.4689 20.2955 11.1052 19.5893C10.8394 19.0808 10.5036 17.7956 10.6016 17.6968C10.6295 17.6544 10.9233 17.7391 11.2591 17.8521C12.2243 18.2052 12.3503 18.1205 11.7907 17.5273C10.7414 16.4539 10.4197 14.858 10.9233 13.3468L11.1611 12.6688L12.0844 13.5869C13.973 15.437 16.1974 16.5386 18.7435 16.8635L19.443 16.9482Z" fill="#56C2ED"/>
</svg>
